<?xml version="1.0" encoding="iso-8859-1"?>
<!-- Generator: Adobe Illustrator 18.1.1, SVG Export Plug-In . SVG Version: 6.00 Build 0)  -->
<svg version="1.1" id="Capa_1" xmlns="http://www.w3.org/2000/svg" xmlns:xlink="http://www.w3.org/1999/xlink" x="0px" y="0px"
	 viewBox="0 0 53.348 53.348" style="enable-background:new 0 0 53.348 53.348;" xml:space="preserve">
<g>
	<g>
		<path style="fill:#010002;" d="M6.195,48.263c0.175,0.645,0.591,1.182,1.17,1.513l5.666,3.242c0.391,0.224,0.816,0.33,1.237,0.33
			c0.868,0,1.713-0.452,2.174-1.258l9.58-16.743c1.106,0.214,2.233,0.326,3.364,0.326c6.388,0,12.325-3.441,15.494-8.979
			c2.366-4.135,2.98-8.943,1.729-13.54s-4.217-8.431-8.351-10.796C35.562,0.815,32.505,0,29.416,0
			c-6.388,0-12.324,3.441-15.494,8.979c-3.881,6.783-2.787,15.059,2.103,20.627L6.437,46.363
			C6.105,46.944,6.019,47.619,6.195,48.263z M21.412,37.364l-4.798-2.745l1.649-2.882c0.713,0.571,1.463,1.11,2.281,1.578
			c0.806,0.461,1.648,0.849,2.51,1.178L21.412,37.364z M16.526,10.47C19.163,5.863,24.102,3,29.416,3
			c2.567,0,5.109,0.678,7.351,1.961c3.44,1.968,5.906,5.157,6.947,8.98c1.04,3.823,0.53,7.823-1.438,11.262
			c-2.636,4.607-7.576,7.47-12.89,7.47c-2.567,0-5.109-0.678-7.352-1.961C14.935,26.65,12.464,17.569,16.526,10.47z M15.125,37.223
			l4.798,2.745l-5.835,10.199L9.29,47.422L15.125,37.223z"/>
		<path style="fill:#010002;" d="M23.085,28.877c1.922,1.1,4.103,1.681,6.305,1.681c4.556,0,8.791-2.454,11.051-6.404
			c3.483-6.087,1.364-13.873-4.723-17.356c-1.922-1.1-4.103-1.681-6.305-1.681c-4.556,0-8.79,2.454-11.051,6.404
			c-1.687,2.949-2.125,6.378-1.233,9.656S20.136,27.189,23.085,28.877z M19.23,12.017c2.082-3.64,5.984-5.901,10.183-5.901
			c2.028,0,4.037,0.536,5.809,1.549c5.608,3.209,7.561,10.382,4.352,15.991c-2.083,3.64-5.985,5.901-10.183,5.901
			c-2.028,0-4.037-0.536-5.808-1.549c-2.717-1.555-4.666-4.074-5.488-7.095C17.272,17.893,17.675,14.733,19.23,12.017z"/>
	</g>
</g>
<g>
</g>
<g>
</g>
<g>
</g>
<g>
</g>
<g>
</g>
<g>
</g>
<g>
</g>
<g>
</g>
<g>
</g>
<g>
</g>
<g>
</g>
<g>
</g>
<g>
</g>
<g>
</g>
<g>
</g>
</svg>
