<svg xmlns="http://www.w3.org/2000/svg" width="400" height="400" viewBox="0 0 400 400"><path fill="#E94B4B" d="M199.433 310.454h-.398.199c-29.326-.021-54.287-4.492-64.068-10.779l11.987 19.179 4.376 59.719s47.775 33.754 95.006 0l3.466-60.369 10.329-16.895c-11.297 5.413-34.383 9.127-61.096 9.146l.199-.001zm64.742-81.643c-2.086 1.575-4.125 2.797-6.112 3.657-1.99.863-4.119 1.296-6.39 1.296-2.129 0-3.774-.466-4.938-1.396-1.162-.929-1.744-2.205-1.744-3.832v-.373c0-.115.014-.259.043-.424.111-.994.547-2.142 1.303-3.435a39.358 39.358 0 0 1 2.73-4.031 108.692 108.692 0 0 1 3.404-4.231 194.149 194.149 0 0 0 3.342-4.058c1.021-1.274 1.869-2.444 2.541-3.508.674-1.062 1.01-1.924 1.01-2.588 0-.397-.141-.713-.42-.947-.281-.229-.744-.348-1.387-.348-1.121 0-2.277.291-3.467.871-1.191.58-2.369 1.361-3.531 2.34a32.065 32.065 0 0 0-3.404 3.359 49.353 49.353 0 0 0-3.109 3.932c-.967 1.361-1.848 2.73-2.646 4.107s-1.479 2.646-2.039 3.807l-.715 1.543c-.31.664-.646 1.412-1.009 2.24-.364.83-.75 1.686-1.155 2.562-.406.881-.777 1.711-1.113 2.489l-.901 2.091a58.422 58.422 0 0 1-.568 1.27c-.141.299-.371.861-.693 1.691s-.693 1.801-1.113 2.912l-1.324 3.51c-.461 1.227-.896 2.389-1.303 3.483-.406 1.095-.764 2.058-1.069 2.888-.31.828-.507 1.393-.591 1.69a17.982 17.982 0 0 1-.985 2.44 10.003 10.003 0 0 1-1.304 2.016 5.954 5.954 0 0 1-1.682 1.393c-.631.351-1.338.523-2.121.523-1.01 0-1.842-.242-2.502-.723-.656-.48-.986-1.402-.986-2.762 0-.664.084-1.345.252-2.041.169-.697.38-1.387.632-2.065.252-.683.512-1.345.776-1.99.267-.647.513-1.271.734-1.866a953.897 953.897 0 0 1 4.623-9.98 460.161 460.161 0 0 0 4.518-9.904c.302-.682.576-1.35.869-2.027l-.26.26c-1.822 1.761-3.635 3.312-5.441 4.654-1.809 1.344-3.602 2.414-5.379 3.211-1.778.795-3.51 1.193-5.19 1.193-1.148 0-2.107-.182-2.877-.547-.771-.365-1.387-.863-1.85-1.492-.463-.631-.793-1.377-.988-2.24-.066-.295-.107-.604-.15-.91-.492.383-.988.756-1.488 1.109-1.735 1.227-3.445 2.215-5.127 2.961-1.68.746-3.193 1.119-4.537 1.119-1.346 0-2.438-.447-3.279-1.344-.84-.895-1.26-2.422-1.26-4.578 0-1.527.225-3.303.672-5.326-.729 1.295-1.639 2.605-2.73 3.932a23.953 23.953 0 0 1-3.74 3.635 18.64 18.64 0 0 1-4.707 2.662c-1.738.681-3.629 1.021-5.673 1.021-.925 0-1.813-.114-2.669-.349a5.587 5.587 0 0 1-2.248-1.194c-.645-.562-1.162-1.317-1.555-2.265-.393-.945-.588-2.133-.588-3.559 0-.033.056-.539.168-1.52.111-.979.469-2.521 1.071-4.629.603-2.105 1.534-4.836 2.794-8.188 1.262-3.353 3.04-7.416 5.338-12.193.588-1.262 1.268-2.166 2.037-2.713.771-.548 1.604-.822 2.5-.822.393 0 .799.059 1.219.174.422.117.812.298 1.178.548.363.248.658.564.883.945.223.381.336.82.336 1.318 0 .332-.043.648-.127.945-.141.566-.441 1.303-.902 2.215a262.25 262.25 0 0 1-1.619 3.137 282.016 282.016 0 0 0-1.953 3.81 54.286 54.286 0 0 0-1.912 4.229 42.237 42.237 0 0 0-1.513 4.455 19.138 19.138 0 0 0-.714 4.404c0 .598.139 1.145.42 1.643.279.498.742.746 1.387.746 1.82 0 3.557-.598 5.211-1.791 1.652-1.195 3.178-2.68 4.58-4.455a42.8 42.8 0 0 0 3.803-5.725c1.135-2.041 2.08-3.906 2.836-5.6a28.386 28.386 0 0 0 1.408-3.633c.406-1.295.848-2.488 1.324-3.584s1.021-2.008 1.639-2.738c.615-.729 1.387-1.094 2.311-1.094 1.011 0 1.808.382 2.396 1.145.588.764.881 1.676.881 2.736 0 .598-.188 1.42-.565 2.465s-.854 2.24-1.431 3.584a421.142 421.142 0 0 1-1.869 4.305 75.516 75.516 0 0 0-1.869 4.654c-.575 1.576-1.05 3.119-1.429 4.629s-.566 2.912-.566 4.205c0 1.195.615 1.793 1.848 1.793.869 0 1.947-.299 3.236-.896 1.289-.597 2.641-1.436 4.055-2.514.354-.27.709-.551 1.062-.846.396-1.629.857-3.135 1.396-4.504.98-2.59 1.975-5.16 2.984-7.715 1.008-2.556 1.932-4.896 2.772-7.021l12.732-32.104c.504-1.294 1.184-2.207 2.037-2.738.855-.53 1.717-.796 2.586-.796.867 0 1.658.282 2.373.846.715.565 1.072 1.477 1.072 2.738 0 .597-.119 1.228-.357 1.891a22.905 22.905 0 0 1-.904 2.141 391.228 391.228 0 0 0-2.5 5.724 884.57 884.57 0 0 0-6.512 15.655 5584.505 5584.505 0 0 1-3.403 8.386 963.319 963.319 0 0 0-3.109 7.74c-.967 2.438-1.799 4.555-2.5 6.346-.31.764-.609 1.652-.902 2.664-.295 1.012-.441 1.916-.441 2.713 0 .496.084.895.252 1.193.168.297.49.449.967.449.589 0 1.322-.207 2.205-.623.884-.414 1.834-.963 2.857-1.644s2.088-1.459 3.193-2.34a102.73 102.73 0 0 0 3.299-2.736c1.094-.946 2.137-1.894 3.131-2.838s1.885-1.815 2.67-2.612c.184-.191.404-.326.646-.429a89.662 89.662 0 0 0 1.285-4.149c.225-.599.533-1.443.926-2.539a34.77 34.77 0 0 1 1.344-3.236c.504-1.061 1.072-1.982 1.701-2.762.631-.779 1.311-1.17 2.039-1.17 1.121 0 1.934.258 2.438.771.504.516.756 1.27.756 2.267 0 .198-.026.514-.084.944a30.728 30.728 0 0 1-.481 2.738c-.101.432-.188.745-.272.944a56.01 56.01 0 0 1 3.36-3.358 34.92 34.92 0 0 1 3.739-3.012 21.566 21.566 0 0 1 3.951-2.191c1.345-.563 2.689-.845 4.033-.845.924 0 1.842.133 2.752.398.91.265 1.726.656 2.438 1.169a6.12 6.12 0 0 1 1.744 1.941c.446.779.672 1.684.672 2.713 0 1.361-.343 2.812-1.029 4.355s-1.547 3.094-2.584 4.651a58.007 58.007 0 0 1-3.36 4.556 173.568 173.568 0 0 1-3.383 4.03 297.756 297.756 0 0 0-2.648 3.087c-.713.848-1.086 1.42-1.113 1.719 0 .397.127.721.379.971.252.248.672.373 1.26.373.478 0 1.178-.266 2.103-.797.924-.531 2.221-1.451 3.887-2.762 1.666-1.312 3.783-3.07 6.347-5.277a604.166 604.166 0 0 0 6.135-5.366l11.859-102.909h-.08c-12.027 5.759-45.816 11.842-85.624 11.842-39.801 0-73.592-6.083-85.621-11.842h-.099l9.01 94.457a81.159 81.159 0 0 1 1.598-4.871 92.145 92.145 0 0 1 4.181-9.731 86.098 86.098 0 0 1 5.169-8.984 69.482 69.482 0 0 1 5.946-7.79c2.102-2.372 4.258-4.413 6.472-6.122 2.213-1.708 4.447-3.044 6.702-4.007 2.256-.962 4.49-1.443 6.703-1.443 2.549 0 5.015.697 7.396 2.09 2.381 1.394 4.607 3.651 6.682 6.77.476.697.777 1.402.902 2.115.127.714.189 1.386.189 2.016 0 1.493-.357 2.672-1.071 3.534-.714.863-1.562 1.294-2.542 1.294-.897 0-1.73-.473-2.501-1.418s-1.632-2.297-2.585-4.057c-.896-1.593-1.884-2.745-2.962-3.459-1.079-.713-2.248-1.07-3.509-1.07-1.961 0-4.055.813-6.282 2.439-2.228 1.626-4.434 3.775-6.618 6.446-2.186 2.671-4.28 5.724-6.283 9.158s-3.775 6.952-5.316 10.552c-1.541 3.603-2.766 7.152-3.676 10.652-.911 3.5-1.366 6.646-1.366 9.432 0 .931.063 1.886.188 2.861.127.979.364 1.866.715 2.664.35.797.826 1.45 1.429 1.965.603.517 1.366.771 2.29.771 1.037 0 2.213-.348 3.53-1.045 1.316-.694 2.683-1.608 4.097-2.735a51.659 51.659 0 0 0 4.266-3.834 68.585 68.585 0 0 0 3.992-4.33 63.03 63.03 0 0 0 3.277-4.205c.953-1.345 1.667-2.515 2.144-3.511l3.908-11.696c.476-1.26 1.099-2.156 1.87-2.688.77-.53 1.562-.796 2.375-.796.391 0 .783.067 1.176.199.393.133.742.34 1.051.622.309.282.553.647.735 1.095.182.448.272.971.272 1.567 0 1.593-.14 3.085-.42 4.48a35.665 35.665 0 0 1-1.071 4.083 71.693 71.693 0 0 1-1.45 4.006 100.328 100.328 0 0 0-1.555 4.207c-.111.166-.314.688-.609 1.565-.294.881-.65 1.983-1.071 3.312-.42 1.328-.876 2.812-1.366 4.455-.49 1.643-.994 3.317-1.512 5.026a401.368 401.368 0 0 0-1.492 5.027 1033.08 1033.08 0 0 0-2.227 7.788 56.902 56.902 0 0 1-.462 1.595 10.562 10.562 0 0 1-.672 1.767 11.793 11.793 0 0 1-1.094 1.842 6.706 6.706 0 0 1-1.387 1.442c-.504.382-1.022.572-1.555.572-.896 0-1.548-.3-1.953-.896-.407-.598-.609-1.692-.609-3.285v-.696c0-.232.014-.482.041-.746.027-.531.238-1.527.631-2.988.393-1.459.861-3.108 1.408-4.95.546-1.843 1.135-3.75 1.765-5.726s1.197-3.74 1.702-5.301a83.049 83.049 0 0 1-4.833 4.952 52.173 52.173 0 0 1-5.337 4.431c-1.821 1.312-3.656 2.381-5.505 3.211-1.849.828-3.628 1.244-5.337 1.244-1.961 0-3.649-.433-5.064-1.295-.256-.156-.496-.332-.736-.507l5.725 60.02 3.332 5.33c9.781 6.287 34.742 10.758 64.068 10.779 26.713-.021 49.799-3.732 61.097-9.146l4.26-6.963 8.221-71.339c-.68.623-1.34 1.231-1.973 1.821-2.363 2.199-4.584 4.081-6.672 5.658zM200 93.879c-47.393 0-85.812 4.453-85.812 9.947 0 5.491 38.419 13.567 85.812 13.567 47.398 0 85.811-8.076 85.811-13.567.001-5.494-38.413-9.947-85.811-9.947zm15.304 15.694c-5.487 0-10.368-1.659-10.368-3.088 0-.548.723-1.129 1.916-1.638.662-1.219 4.189-2.151 8.452-2.151 4.197 0 7.685.903 8.424 2.094 1.312.523 2.123 1.127 2.123 1.696 0 1.428-5.059 3.087-10.547 3.087zm0-1.748c4.734 0 8.574-1.148 8.574-2.565a.893.893 0 0 0-.15-.471c-1.981-.79-5.12-1.392-8.424-1.392-3.382 0-6.53.631-8.452 1.45a.885.885 0 0 0-.121.414c-.001 1.416 3.837 2.564 8.573 2.564zm62.529-93.396l-11.466-8.616-46.151 48.562-13.161 50.82h16.633l12.87-45.078z"/></svg>